G04*
G04 #@! TF.GenerationSoftware,Altium Limited,Altium Designer,25.8.1 (18)*
G04*
G04 Layer_Physical_Order=2*
G04 Layer_Color=32768*
%FSLAX44Y44*%
%MOMM*%
G71*
G04*
G04 #@! TF.SameCoordinates,00868D23-33A2-40B0-AD17-1BC6AB771355*
G04*
G04*
G04 #@! TF.FilePolarity,Negative*
G04*
G01*
G75*
%ADD52C,1.0160*%
%ADD53C,1.7660*%
G04:AMPARAMS|DCode=54|XSize=2.274mm|YSize=2.274mm|CornerRadius=0mm|HoleSize=0mm|Usage=FLASHONLY|Rotation=0.000|XOffset=0mm|YOffset=0mm|HoleType=Round|Shape=Relief|Width=0.254mm|Gap=0.254mm|Entries=4|*
%AMTHD54*
7,0,0,2.2740,1.7660,0.2540,45*
%
%ADD54THD54*%
%ADD55C,2.0360*%
%ADD56C,2.3160*%
%ADD57C,2.6160*%
%ADD58C,1.3208*%
G04:AMPARAMS|DCode=59|XSize=1.8288mm|YSize=1.8288mm|CornerRadius=0mm|HoleSize=0mm|Usage=FLASHONLY|Rotation=0.000|XOffset=0mm|YOffset=0mm|HoleType=Round|Shape=Relief|Width=0.254mm|Gap=0.254mm|Entries=4|*
%AMTHD59*
7,0,0,1.8288,1.3208,0.2540,45*
%
%ADD59THD59*%
D52*
X801370Y254000D02*
Y996950D01*
X1778000D01*
Y254000D02*
Y996950D01*
X801370Y254000D02*
X1778000D01*
D53*
X998030Y475950D02*
D03*
X825166D02*
D03*
X998030Y872250D02*
D03*
X1388110Y547370D02*
D03*
X1162050Y877570D02*
D03*
X1339850D02*
D03*
X1314450D02*
D03*
X1337310Y547370D02*
D03*
X1362710D02*
D03*
X1187450Y877570D02*
D03*
X1212850D02*
D03*
X1238250D02*
D03*
X1263650D02*
D03*
X1289050D02*
D03*
X1365250D02*
D03*
X1390650D02*
D03*
X1416050D02*
D03*
X1441450D02*
D03*
X1466850D02*
D03*
X1517650D02*
D03*
X1543050D02*
D03*
X1568450D02*
D03*
X1593850D02*
D03*
X1619250D02*
D03*
X1644650D02*
D03*
X1187450Y648970D02*
D03*
X1212850D02*
D03*
X1238250D02*
D03*
X1263650D02*
D03*
X1289050D02*
D03*
X1339850D02*
D03*
X1365250D02*
D03*
X1390650D02*
D03*
X1416050D02*
D03*
X1441450D02*
D03*
X1466850D02*
D03*
X1492250D02*
D03*
X1517650D02*
D03*
X1543050D02*
D03*
X1568450D02*
D03*
X1593850D02*
D03*
X1619250D02*
D03*
X1644650D02*
D03*
D54*
X825166Y872250D02*
D03*
X1492250Y877570D02*
D03*
X1314450Y648970D02*
D03*
X1311910Y547370D02*
D03*
X1162050Y648970D02*
D03*
D55*
X1647190Y956310D02*
D03*
Y930910D02*
D03*
D56*
X1699300Y967340D02*
D03*
Y917340D02*
D03*
D57*
X1536700Y483870D02*
D03*
Y407670D02*
D03*
D58*
X1474470Y941094D02*
D03*
D59*
X1725930Y476250D02*
D03*
X1600200Y952500D02*
D03*
X1601470Y939800D02*
D03*
X1769110Y426720D02*
D03*
X1737360Y384810D02*
D03*
X1705610Y396240D02*
D03*
X1587500Y951230D02*
D03*
X1480820Y953770D02*
D03*
X1590040Y938530D02*
D03*
X1383030Y496570D02*
D03*
X1402080Y469900D02*
D03*
X1367790Y407670D02*
D03*
X1334770Y458470D02*
D03*
M02*
