G04*
G04 #@! TF.GenerationSoftware,Altium Limited,Altium Designer,25.8.1 (18)*
G04*
G04 Layer_Color=16711935*
%FSLAX44Y44*%
%MOMM*%
G71*
G04*
G04 #@! TF.SameCoordinates,00868D23-33A2-40B0-AD17-1BC6AB771355*
G04*
G04*
G04 #@! TF.FilePolarity,Negative*
G04*
G01*
G75*
%ADD30R,1.4612X1.4612*%
%ADD31R,1.4612X1.4612*%
%ADD32C,1.4612*%
%ADD33R,1.5700X1.5700*%
%ADD34C,1.5700*%
%ADD35C,2.1532*%
G04:AMPARAMS|DCode=36|XSize=2.1532mm|YSize=2.1532mm|CornerRadius=0.5891mm|HoleSize=0mm|Usage=FLASHONLY|Rotation=90.000|XOffset=0mm|YOffset=0mm|HoleType=Round|Shape=RoundedRectangle|*
%AMROUNDEDRECTD36*
21,1,2.1532,0.9750,0,0,90.0*
21,1,0.9750,2.1532,0,0,90.0*
1,1,1.1782,0.4875,0.4875*
1,1,1.1782,0.4875,-0.4875*
1,1,1.1782,-0.4875,-0.4875*
1,1,1.1782,-0.4875,0.4875*
%
%ADD36ROUNDEDRECTD36*%
%ADD37C,2.6032*%
%ADD38R,2.6032X2.6032*%
D30*
X998030Y475950D02*
D03*
X825166D02*
D03*
X825166Y872250D02*
D03*
X998030D02*
D03*
D31*
X1388110Y547370D02*
D03*
X1162050Y877570D02*
D03*
Y648970D02*
D03*
D32*
X1492250Y877570D02*
D03*
X1314450Y648970D02*
D03*
X1311910Y547370D02*
D03*
X1339850Y877570D02*
D03*
X1314450D02*
D03*
X1337310Y547370D02*
D03*
X1362710D02*
D03*
X1187450Y877570D02*
D03*
X1212850D02*
D03*
X1238250D02*
D03*
X1263650D02*
D03*
X1289050D02*
D03*
X1365250D02*
D03*
X1390650D02*
D03*
X1416050D02*
D03*
X1441450D02*
D03*
X1466850D02*
D03*
X1517650D02*
D03*
X1543050D02*
D03*
X1568450D02*
D03*
X1593850D02*
D03*
X1619250D02*
D03*
X1644650D02*
D03*
X1187450Y648970D02*
D03*
X1212850D02*
D03*
X1238250D02*
D03*
X1263650D02*
D03*
X1289050D02*
D03*
X1339850D02*
D03*
X1365250D02*
D03*
X1390650D02*
D03*
X1416050D02*
D03*
X1441450D02*
D03*
X1466850D02*
D03*
X1492250D02*
D03*
X1517650D02*
D03*
X1543050D02*
D03*
X1568450D02*
D03*
X1593850D02*
D03*
X1619250D02*
D03*
X1644650D02*
D03*
D33*
X1647190Y956310D02*
D03*
D34*
Y930910D02*
D03*
D35*
X1699300Y967340D02*
D03*
D36*
Y917340D02*
D03*
D37*
X1536700Y483870D02*
D03*
D38*
Y407670D02*
D03*
M02*
